/* XPM */
static char * bar_xpm[] = {
"20 20 27 1",
" 	c None",
".	c #343434",
"+	c #353535",
"@	c #363636",
"#	c #373737",
"$	c #383838",
"%	c #323232",
"&	c #2E2E2E",
"*	c #2F2F2F",
"=	c #2D2D2D",
"-	c #2C2C2C",
";	c #1C1C1C",
">	c #1F1F1F",
",	c #1E1E1E",
"'	c #181818",
")	c #191919",
"!	c #171717",
"~	c #141414",
"{	c #131313",
"]	c #121212",
"^	c #111111",
"/	c #101010",
"(	c #0F0F0F",
"_	c #0E0E0E",
":	c #0D0D0D",
"<	c #1A1A1A",
"[	c #1D1D1D",
"......++++++++++++..",
"++++++++++++++++++++",
"++++++++++++++++++.+",
"++++++++++++++++++++",
"++++++++++++++++++++",
"++++++++++++++++++++",
"@+++++@@@@@@@@@@#$$$",
".+++++++++++++++@@@#",
"................%%%%",
"&&&&************==--",
";>;>>>>>>>,,,,,,>>>;",
"''''''''''''''''''''",
"))))))))))))))))))))",
"'''''''''''''''''!!!",
"~~~~{{]^//(_:___(/^/",
"(((((((::::::::_((((",
"_((((((((((((____::_",
"___________________:",
"!!!''''''<''<<<,[[[;",
",,,,,,,,,,,,,,,,,,,,"};
