/* XPM */
static char * bar1_xpm[] = {
"20 20 18 1",
" 	c None",
".	c #1F1F1F",
"+	c #1E1E1E",
"@	c #1D1D1D",
"#	c #212121",
"$	c #202020",
"%	c #1C1C1C",
"&	c #151515",
"*	c #131313",
"=	c #141414",
"-	c #101010",
";	c #111111",
">	c #0F0F0F",
",	c #0D0D0D",
"'	c #050505",
")	c #040404",
"!	c #020202",
"~	c #000000",
"....................",
"....................",
".......+++++++@@@+..",
"..........+++++++++.",
"....................",
"##################$$",
"@@@@@@@@+$$$$$$$+@%%",
"&&&&&&&&&&&&&&&&&&&&",
"***=*************===",
"-------;;;;;;;;;;;--",
">>>>>>>>>>>>>>>>>>>>",
"---------------->>>,",
"''''''''''''''''))))",
"!!!!!!!!!!!!!!!!!!!!",
"~~~~~~~~~~~~~~~~~~~~",
"~~~~~~~~~~~~~~~~~~~~",
"~~~~~~~~~~~~~~~~~~~~",
"~~~~~~~~~~~~~~~~~~~~",
"~~~~~~~~~~~~~~~~~~~~",
"~~~~~~~~~~~~~~~~~~~~"};
