/* XPM */
static char * bar2_xpm[] = {
"20 20 20 1",
" 	c #898989",
".	c #8F8F8F",
"+	c #939393",
"@	c #949494",
"#	c #919191",
"$	c #8E8E8E",
"%	c #848484",
"&	c #858585",
"*	c #808080",
"=	c #7C7C7C",
"-	c #787878",
";	c #747474",
">	c #707070",
",	c #717171",
"'	c #6D6D6D",
")	c #6B6B6B",
"!	c #6A6A6A",
"~	c #676767",
"{	c #797979",
"]	c #878787",
"                    ",
"....................",
"+@++@+@++@+@+++@+@++",
"####################",
"$$$$$$$$$$$$$$$$$$$$",
"                    ",
"%%%%%%&&%%%&&%%%%&&%",
"********************",
"====================",
"--------------------",
";;;;;;;;;;;;;;;;;;;;",
">>>>>>,>>>>,>>>>>,>>",
"''''''''''''''''''''",
"))!))!))!)!))!))!))!",
"~~~~~~~~~~~~~~~~~~~~",
"~~~~~~~~~~~~~~~~~~~~",
"))))))!))))!)))))!))",
",,,,,,,,,,,,,,,,,,,,",
"{--{----------{-----",
"]]]]]]]]]]]]]]]]]]]]"};
