/* XPM */
static char * close1_xpm[] = {
"20 20 40 1",
" 	g None",
".	g #666666",
"+	g #000000",
"@	g #808080",
"#	g #636363",
"$	g #878787",
"%	g #5E5E5E",
"&	g #585858",
"*	g #868686",
"=	g #535353",
"-	g #848484",
";	g #4E4E4E",
">	g #828282",
",	g #494949",
"'	g #444444",
")	g #7E7E7E",
"!	g #3F3F3F",
"~	g #7D7D7D",
"{	g #393939",
"]	g #7B7B7B",
"^	g #353535",
"/	g #797979",
"(	g #303030",
"_	g #767676",
":	g #2B2B2B",
"<	g #757575",
"[	g #252525",
"}	g #737373",
"|	g #202020",
"1	g #626262",
"2	g #1C1C1C",
"3	g #595959",
"4	g #161616",
"5	g #575757",
"6	g #111111",
"7	g #5C5C5C",
"8	g #0D0D0D",
"9	g #616161",
"0	g #070707",
"a	g #787878",
".......+@...........",
"#######+$###########",
"%%%%%%%+$%%%%%%%%%%%",
"&&&&&&&+*&&&&&&&&&&&",
"=======+-====--=====",
";;;;;;;+>;;;>++>;;;;",
",,,,,,,+@,,@+,,+@,,,",
"''''''''+))+''+)''''",
"!!!!!!!!!++!!+~!!!!!",
"{{{{{{{{{{{{+]{{{{{{",
"^^^^^^^^^^^^+/^^^^^^",
"(((((((((++((+_(((((",
"::::::::+<<+::+<::::",
"[[[[[[[+}[[}+[[+}[[[",
"|||||++1||||1+++1|||",
"2222+&3222222&&+3222",
"4444+5444444444+5444",
"6666+7666666666+7666",
"8888+9888888888+9888",
"0000+a000000000+a000"};
