/* XPM */
static char * close2a_xpm[] = {
"20 20 19 1",
" 	c None",
".	c #252525",
"+	c #424242",
"@	c #FBFBFB",
"#	c #000000",
"$	c #FDFDFD",
"%	c #FEFEFE",
"&	c #FCFCFC",
"*	c #3C3C3C",
"=	c #DEDEDE",
"-	c #A7A7A7",
";	c #C7C7C7",
">	c #B9B9B9",
",	c #B4B4B4",
"'	c #909090",
")	c #BABABA",
"!	c #D1D1D1",
"~	c #D0D0D0",
"{	c #393939",
"....................",
"....................",
"....................",
"....................",
".....++......++.....",
"....+@@+....+@@+....",
"###+$%&&+..+%&&&*###",
"####+====++====+####",
"#####+===--===+#####",
"######+;;;;;;+######",
"######+;>>>>;+######",
"#####+,,,'',,,+#####",
"####+>>>>++>)>>+####",
"###+!!~!+##+!~!~*###",
"####+!!+####+~~{####",
"#####++######++#####",
"####################",
"####################",
"####################",
"####################"};
