/* XPM */
static char * max1_xpm[] = {
"20 20 38 1",
" 	g None",
".	g #666666",
"+	g #000000",
"@	g #808080",
"#	g #626262",
"$	g #878787",
"%	g #5D5D5D",
"&	g #585858",
"*	g #868686",
"=	g #535353",
"-	g #848484",
";	g #4E4E4E",
">	g #828282",
",	g #494949",
"'	g #444444",
")	g #7E7E7E",
"!	g #3F3F3F",
"~	g #7D7D7D",
"{	g #393939",
"]	g #7B7B7B",
"^	g #353535",
"/	g #797979",
"(	g #303030",
"_	g #767676",
":	g #2B2B2B",
"<	g #757575",
"[	g #252525",
"}	g #737373",
"|	g #202020",
"1	g #1C1C1C",
"2	g #161616",
"3	g #575757",
"4	g #111111",
"5	g #5C5C5C",
"6	g #0C0C0C",
"7	g #616161",
"8	g #070707",
"9	g #787878",
".........+@.........",
"#########+$#########",
"%%%%%%%%%+$%%%%%%%%%",
"&&&&&&&&&+*&&&&&&&&&",
"=========+-----=====",
";;;;;;;;;++++++>;;;;",
",,,,,,,,,,,,,,+@,,,,",
"''''''''''''''+)''''",
"!!!!!!!!!!!!!!+~!!!!",
"{{{{{{{{{{{{{{+]{{{{",
"^^^^^^^^^^^^+^+/^^^^",
"(((((((((((+_++_((((",
"::::::::::+<:<<:::::",
"[[[[[[[[[+}[[[[[[[[[",
"||||||||+#||||||||||",
"1111111+&11111111111",
"2222222+322222222222",
"4444444+544444444444",
"6666666+766666666666",
"8888888+988888888888"};
