/* XPM */
static char * max2a_xpm[] = {
"20 20 17 1",
" 	c None",
".	c #252525",
"+	c #00070E",
"@	c #000001",
"#	c #000002",
"$	c #000000",
"%	c #FFFFFF",
"&	c #424242",
"*	c #DEDEDE",
"=	c #C7C7C7",
"-	c #B9B9B9",
";	c #BABABA",
">	c #B4B4B4",
",	c #B5B5B5",
"'	c #D1D1D1",
")	c #D0D0D0",
"!	c #E5E5E5",
".........+..........",
".........@..........",
".........#..........",
".........$..........",
".........$..........",
"....................",
"$$$$$$$.$%%%%%$$$$$$",
"$$$$$$$$&$%%%%&$$$$$",
"$$$$$$$&$*****&$$$$$",
"$$$$$$&$======&$$$$$",
"$$$$$&$-;---&-&$$$$$",
"$$$$&$>>>,,&$&$$$$$$",
"$$$&$----;&$$$$$$$$$",
"$$$$&$'))&$$$$$$$$$$",
"$$$$$&$!&$$$$$$$$$$$",
"$$$$$$&$&$$$$$$$$$$$",
"$$$$$$$$$$$$$$$$$$$$",
"$$$$$$$$$$$$$$$$$$$$",
"$$$$$$$$$$$$$$$$$$$$",
"$$$$$$$$$$$$$$$$$$$$"};
