/* XPM */
static char * max2_xpm[] = {
"20 20 35 1",
" 	c #898989",
".	c #000000",
"+	c #A4A4A4",
"@	c #8F8F8F",
"#	c #A8A8A8",
"$	c #939393",
"%	c #949494",
"&	c #ABABAB",
"*	c #919191",
"=	c #AAAAAA",
"-	c #909090",
";	c #8E8E8E",
">	c #848484",
",	c #858585",
"'	c #A0A0A0",
")	c #808080",
"!	c #9D9D9D",
"~	c #7C7C7C",
"{	c #9A9A9A",
"]	c #787878",
"^	c #979797",
"/	c #747474",
"(	c #757575",
"_	c #707070",
":	c #717171",
"<	c #6D6D6D",
"[	c #6A6A6A",
"}	c #6B6B6B",
"|	c #8D8D8D",
"1	c #676767",
"2	c #8A8A8A",
"3	c #868686",
"4	c #797979",
"5	c #878787",
"6	c #A2A2A2",
"         .+         ",
"@@@@@@@@@.#@@@@@@@@@",
"$%$%$$%%$.&%$$%$$$%%",
"*********.=******-**",
";;;;;;;;;.#####;;;;;",
"         ......+    ",
">>>,,>,,>>>,>,.'>>>,",
")))))))))))))).!))))",
"~~~~~~~~~~~~~~.{~~~~",
"]]]]]]]]]]]]]].^]]]]",
"//////(/////./.%////",
"___:_______.*..*____",
"<<<<<<<<<<.;<;;<<<<<",
"[}[}}[}}}.|[}[}[}}}}",
"11111111.21111111111",
"1111111.311111111111",
"}}}[}}}.3}}}[[}[}}[}",
":::::::.@:::::::::::",
"]]]]]]4.^]]44]]]4]]]",
"5555555.655555555555"};
