/* XPM */
static char * min2a_xpm[] = {
"20 20 13 1",
" 	c None",
".	c #000000",
"+	c #252525",
"@	c #01060C",
"#	c #424242",
"$	c #FFFFFF",
"%	c #DEDEDE",
"&	c #C7C7C7",
"*	c #B9B9B9",
"=	c #B4B4B4",
"-	c #BABABA",
";	c #D1D1D1",
">	c #D0D0D0",
"..........++++.+++++",
"..........++++@+++++",
".........+++++.+++++",
"........++++++.+++++",
"..++++++++++++.#++++",
".+++++++++++#.$.#+++",
".+.........#.$$$.#..",
".+........#.$$$$$.#.",
".+.....#.#.%%%%%.#..",
".+......&.&&&&&.#...",
".+......******.#....",
".+......=====.#.....",
".+......--**.#......",
".+......;>;;>.......",
".+.....#............",
".+..................",
".+..................",
".+..................",
"....................",
"...................."};
