/* XPM */
static char * stick2_xpm[] = {
"20 20 4 1",
" 	c None",
".	c #252525",
"+	c #424242",
"@	c #000000",
"......+...+@@@@@@@@@",
"......+...+@@@@@@@@@",
"......+....+@@@@@@@@",
"......+.....++++++@@",
"......+...........+@",
"......+++++........+",
"......+....+.......+",
"@@@@@@+@@@@@+@@@@@@+",
"@@@@@@+@@@@@@+@@@@@+",
"@@@@@@+@@@@@@@+@@@@+",
"@@@@@@+@@@@@@@@+@@@+",
"@@@@@@+@@@@@@@@+@@@+",
"@@@@@@+@@@@@@@@+@@@+",
"@@@@@@@+@@@@@@@+@@@+",
"@@@@@@@@+@@@@@@+@@@+",
"@@@@@@@@@+@@@@+@@@@+",
"@@@@@@@@@+++++@@@@@+",
"@@@@@@@@@+@@@@@@@@@+",
"@@@@@@@@@+@@@@@@@@@+",
"@@@@@@@@@+@@@@@@@@@+"};
