/* XPM */
static char * stick2a_xpm[] = {
"20 20 18 1",
" 	c None",
".	c #252525",
"+	c #424242",
"@	c #000000",
"#	c #FFFFFF",
"$	c #EDEDED",
"%	c #EEEEEE",
"&	c #D8D8D8",
"*	c #D9D9D9",
"=	c #C0C0C0",
"-	c #BFBFBF",
";	c #A2A2A2",
">	c #A3A3A3",
",	c #9B9B9B",
"'	c #9A9A9A",
")	c #9E9E9E",
"!	c #9D9D9D",
"~	c #AEAEAE",
"......+...+@@@@@@@@@",
"......+...+@@@@@@@@@",
"......+....+@@@@@@@@",
"......+.....++++++@@",
"......+...........+@",
"......+++++........+",
"......+####+.......+",
"@@@@@@+#####+@@@@@@+",
"@@@@@@+######+@@@@@+",
"@@@@@@+$$%$$$$+@@@@+",
"@@@@@@+&&&&*&&&+@@@+",
"@@@@@@+=--=-=--+@@@+",
"@@@@@@+;>;;>;;>+@@@+",
"@@@@@@@+,',,,,,+@@@+",
"@@@@@@@@+)!!!!!+@@@+",
"@@@@@@@@@+~~~~+@@@@+",
"@@@@@@@@@+++++@@@@@+",
"@@@@@@@@@+@@@@@@@@@+",
"@@@@@@@@@+@@@@@@@@@+",
"@@@@@@@@@+@@@@@@@@@+"};
